<svg xmlns="http://www.w3.org/2000/svg" viewBox="0 0 1200 800" fill="none">
  <!-- Background -->
  <rect width="1200" height="800" fill="#f8fafc"/>
  
  <!-- Sidebar -->
  <rect width="240" height="800" fill="#1e293b"/>
  <!-- Logo -->
  <text x="30" y="50" font-family="sans-serif" font-size="24" font-weight="bold" fill="white">Mentora</text>
  <!-- Nav Items -->
  <rect x="0" y="100" width="240" height="40" fill="#db2777" fill-opacity="0.1"/>
  <rect x="0" y="100" width="4" height="40" fill="#db2777"/>
  <text x="30" y="127" font-family="sans-serif" font-size="16" fill="#db2777" font-weight="500">Dashboard</text>
  <text x="30" y="177" font-family="sans-serif" font-size="16" fill="#94a3b8">Classes</text>
  <text x="30" y="227" font-family="sans-serif" font-size="16" fill="#94a3b8">Lessons</text>
  <text x="30" y="277" font-family="sans-serif" font-size="16" fill="#94a3b8">Assessments</text>
  <text x="30" y="327" font-family="sans-serif" font-size="16" fill="#94a3b8">Students</text>
  <text x="30" y="377" font-family="sans-serif" font-size="16" fill="#94a3b8">Settings</text>
  
  <!-- User Profile Bottom -->
  <circle cx="40" cy="750" r="16" fill="#475569"/>
  <text x="70" y="755" font-family="sans-serif" font-size="14" fill="white">Jane Doe</text>

  <!-- Main Content -->
  <g transform="translate(240, 0)">
    <!-- Header -->
    <text x="40" y="60" font-family="sans-serif" font-size="28" font-weight="bold" fill="#0f172a">Welcome back, Jane</text>
    <text x="40" y="85" font-family="sans-serif" font-size="14" fill="#64748b">October 26, 2026</text>

    <!-- Top Cards Row -->
    <g transform="translate(40, 120)">
      <!-- Card 1: Engagement -->
      <rect width="280" height="160" rx="12" fill="white" filter="url(#shadow)"/>
      <text x="20" y="30" font-family="sans-serif" font-size="14" font-weight="600" fill="#334155">Student Engagement</text>
      <text x="20" y="70" font-family="sans-serif" font-size="36" font-weight="bold" fill="#7c3aed">87%</text>
      <text x="20" y="95" font-family="sans-serif" font-size="12" fill="#16a34a">↑ 5% this week</text>
      <!-- Wave -->
      <path d="M20,130 Q80,80 140,110 T260,80" fill="none" stroke="#db2777" stroke-width="3"/>
      <circle cx="260" cy="80" r="4" fill="#db2777"/>
      
      <!-- Card 2: Lesson Plans -->
      <g transform="translate(300, 0)">
        <rect width="280" height="160" rx="12" fill="white" filter="url(#shadow)"/>
        <text x="20" y="30" font-family="sans-serif" font-size="14" font-weight="600" fill="#334155">Lesson Plans Created</text>
        <rect x="20" y="50" width="180" height="8" rx="4" fill="#f1f5f9"/>
        <rect x="20" y="50" width="140" height="8" rx="4" fill="#7c3aed"/>
        <rect x="20" y="70" width="180" height="8" rx="4" fill="#f1f5f9"/>
        <rect x="20" y="70" width="120" height="8" rx="4" fill="#db2777"/>
        <rect x="20" y="90" width="180" height="8" rx="4" fill="#f1f5f9"/>
        <rect x="20" y="90" width="160" height="8" rx="4" fill="#db2777"/>
        <text x="20" y="140" font-family="sans-serif" font-size="24" font-weight="bold" fill="#0f172a">24</text>
        <text x="55" y="140" font-family="sans-serif" font-size="12" fill="#64748b">/ 30 planned</text>
      </g>

      <!-- Card 3: Assessment -->
      <g transform="translate(600, 0)">
        <rect width="280" height="160" rx="12" fill="white" filter="url(#shadow)"/>
        <text x="20" y="30" font-family="sans-serif" font-size="14" font-weight="600" fill="#334155">Assessment Scores</text>
        <text x="20" y="70" font-family="sans-serif" font-size="36" font-weight="bold" fill="#4f46e5">78.5</text>
        <!-- Mini Bar Chart -->
        <rect x="20" y="110" width="15" height="20" fill="#e2e8f0" rx="2"/>
        <rect x="40" y="100" width="15" height="30" fill="#e2e8f0" rx="2"/>
        <rect x="60" y="90" width="15" height="40" fill="#db2777" rx="2"/>
        <rect x="80" y="80" width="15" height="50" fill="#7c3aed" rx="2"/>
        <rect x="100" y="95" width="15" height="35" fill="#db2777" rx="2"/>
        <rect x="120" y="115" width="15" height="15" fill="#e2e8f0" rx="2"/>
      </g>
    </g>

    <!-- Bottom Row -->
    <g transform="translate(40, 310)">
      <!-- Large Chart -->
      <rect width="580" height="300" rx="12" fill="white" filter="url(#shadow)"/>
      <text x="20" y="30" font-family="sans-serif" font-size="14" font-weight="600" fill="#334155">Weekly Student Engagement Trend</text>
      <!-- Grid Lines -->
      <line x1="40" y1="250" x2="540" y2="250" stroke="#f1f5f9"/>
      <line x1="40" y1="200" x2="540" y2="200" stroke="#f1f5f9"/>
      <line x1="40" y1="150" x2="540" y2="150" stroke="#f1f5f9"/>
      <line x1="40" y1="100" x2="540" y2="100" stroke="#f1f5f9"/>
      <!-- Lines -->
      <path d="M40,200 Q165,100 290,200 T540,150" fill="none" stroke="#db2777" stroke-width="3"/>
      <path d="M40,250 Q165,180 290,230 T540,100" fill="none" stroke="#7c3aed" stroke-width="3"/>
      
      <!-- Right Column -->
      <g transform="translate(600, 0)">
        <rect width="280" height="300" rx="12" fill="white" filter="url(#shadow)"/>
        <text x="20" y="30" font-family="sans-serif" font-size="14" font-weight="600" fill="#334155">Recent Assessment Averages</text>
        <text x="220" y="30" font-family="sans-serif" font-size="10" font-weight="bold" fill="white">
            <tspan dx="-50" dy="0" fill="#7c3aed">View All</tspan>
        </text>
         <!-- Stacked Bars -->
        <g transform="translate(30, 80)">
             <rect x="0" y="0" width="40" height="150" rx="4" fill="#f1f5f9"/>
             <rect x="0" y="100" width="40" height="50" rx="4" fill="#db2777"/> <!-- Red -->
             <rect x="0" y="60" width="40" height="40" rx="4" fill="#7c3aed"/> <!-- Purple -->
             
             <rect x="80" y="0" width="40" height="150" rx="4" fill="#f1f5f9"/>
             <rect x="80" y="120" width="40" height="30" rx="4" fill="#db2777"/>
             <rect x="80" y="40" width="40" height="80" rx="4" fill="#7c3aed"/>

             <rect x="160" y="0" width="40" height="150" rx="4" fill="#f1f5f9"/>
             <rect x="160" y="90" width="40" height="60" rx="4" fill="#db2777"/>
             <rect x="160" y="50" width="40" height="40" rx="4" fill="#7c3aed"/>
        </g>
        <text x="35" y="250" font-family="sans-serif" font-size="10" fill="#64748b">Math</text>
        <text x="110" y="250" font-family="sans-serif" font-size="10" fill="#64748b">Science</text>
        <text x="190" y="250" font-family="sans-serif" font-size="10" fill="#64748b">History</text>
      </g>
    </g>
  </g>
  
  <defs>
    <filter id="shadow" x="-4" y="-4" width="200%" height="200%">
      <feOffset dx="0" dy="4" in="SourceAlpha"/>
      <feGaussianBlur stdDeviation="4"/>
      <feColorMatrix type="matrix" values="0 0 0 0 0  0 0 0 0 0  0 0 0 0 0  0 0 0 0.1 0"/>
    </filter>
  </defs>
</svg>
