<?xml version="1.0" encoding="UTF-8"?>
<svg id="Layer_1" data-name="Layer 1" xmlns="http://www.w3.org/2000/svg" xmlns:xlink="http://www.w3.org/1999/xlink" viewBox="0 0 860.063 945.642">
  <defs>
    <clipPath id="clippath">
      <path d="M474.696,716.744c-13.174-.999-23.759-9.595-27.576-20.414-4.472-12.673-1.054-25.842,8.648-34.679l13.583-12.371c10.13-9.226,17.493-19.539,21.814-32.432,3.077-9.18,5.939-18.414,5.853-28.393l-.423-49.56-9.517-8.996c-4.731-4.472-10.27-7.634-16.878-9.256-36.859-9.046-93.619,2.968-131.661,13.288-1.943.527-5.435,2.405-6.465,3.847-6.837,9.576-13.625,18.811-21.904,27.136l-36.326,36.531-20.215,15.884-6.11,5.84-40.814,28.048c-10.407,7.152-21.196,13.324-32.998,17.66-15.966,5.866-34.243-1.52-41.195-16.815-5.915-13.013-1.396-28.394,9.911-37.161,10.589-8.209,22.164-14.197,33.842-21.039l30.648-24.293,1.449-2.67c.411-.758-1.862-2.022-2.825-2.387-23.779-.444-46.742-4.175-68.86-12.753-9.603-4.216-18.886-8.376-26.119-15.847-8.597-8.879-11.915-20.837-8.383-33.292,2.791-9.841,10.854-19.285,22.314-22.506,10.227-2.874,20.878-.784,30.029,4.767,24.891,15.099,53,17.917,81.044,10.644,23.451-6.082,45.847-12.313,68.788-20.261,6.76-13.776,9.138-27.171,5.954-42.276-5.393-25.583-15.077-49.901-28.503-72.368-6.567-10.989-16.699-19.298-27.973-25.26l-61.494-32.518c-20.658-10.924-39.477-23.253-59.403-35.396-14.399-8.775-27.506-17.9-40.845-28.108-11.991-9.176-17.105-23.88-11.954-38.206,4.743-13.191,17.852-22.229,32.88-21.508,9.71.466,17.941,4.395,25.676,10.203,17.542,13.171,34.71,25.894,53.314,37.547,2.272,1.423,4.054,1.937,7.419,2.36l-4.327-17.319c-3.681-14.733-4.759-28.871-1.972-43.816,2.083-11.167,4.577-21.64,10.685-31.182,9.377-14.649,27.029-21.801,43.586-15.273,11.061,4.361,19.259,15.22,20.224,27.269,1.233,15.407-16.755,30.652-4.001,61.31,9.852,23.68,23.707,45.651,41.653,64.43,13.438,4.743,28.433,2.793,41.911-2.159,24.179-8.885,44.603-23.207,64.133-39.846,10.589-9.841,19.678-20.049,29.193-31.099,3.281-13.801,5.135-27.008,5.825-41.158,3.535-45.071,13.694-89.794,34.86-129.792,4.124-7.792,8.94-14.801,15.848-20.046,14.642-11.119,34.601-6.316,43.4,9.456,5.14,9.212,5.819,18.725,2.994,29.014-3.743,13.631-8.775,26.586-14.191,39.71-2.821,6.835-6.119,12.59-6.105,21.164l28.356-12.888c10.079-4.581,20.915-6.48,31.63-9.294,10.652-2.798,20.992-4.668,31.851-4.179,17.895.805,31.347,14.451,31.612,32.432.21,14.271-8.355,26.591-22.379,29.735l-34.92,7.828c-15.871,3.558-29.542,9.768-41.479,20.711-12.762,11.7-22.896,25.007-32.601,39.412-2.657,3.944-4.076,8.125-2.569,13.18,4.497,15.08,11.988,30.328,24.653,40.306l28.117,18.993,13.095,5.849,39.285,15.692c5.036,2.011,9.561,1.969,14.8.611,22.965-5.954,45.81-9.559,69.376-11.687l23.078-2.084c25.516-2.304,50.688-2.948,76.227-1.706,13.057.635,24.24,8.045,28.941,18.966,5.105,11.86,3.048,25.814-6.261,34.792-7.535,7.268-30.208,12.974-42.64,10.2l-42.424-.757c-.875.873-1.837,1.767-1.766,2.384.269,2.321,13.096,11.467,21.928,23.916,10.709,15.094,19.006,31.326,24.523,49.101,4.169,13.432-.95,28.523-12.705,35.879-17.96,11.239-40.293,2.495-48.07-16.726-10.787-26.659-25.08-46.571-52.658-56.529l-43.965-15.875c-4.623-1.669-9.35-.674-13.504,2.081-12.732,8.446-24.388,19.391-31.47,33.412-8.128,16.091-13.544,33.028-17.28,50.656l-1.791,13.793-.244,20.771c-.053,4.554-.352,9.578.333,14.066,12.311,14.355,22.109,29.31,32.005,45.239l11.97,22.105,12.246,22.707,8.816,18.261c9.029,18.701,16.824,37.098,22.762,57.07,3.67,12.343,2.786,25.369-6.131,35.164-6.869,7.545-16.961,10.878-26.997,9.704-24.569-2.873-30.499-28.26-37.811-45.87l-4.937-11.888-12.887-27.189c-.841-1.775-3.84-4.031-5.463-3.221l-8.984,21.465c-10.712,20.612-26.622,37.597-45.007,51.525-7.776,5.891-17.106,8.993-27.103,8.235ZM508.506,430.642c1.201-5.57,1.504-11.97,3.546-16.894,5.706-13.751,11.884-26.742,19.288-39.585l15.147-19.778c.661-.863,1.341-2.561,1.533-3.381s-1.614-2.225-2.384-2.619l-23.213-11.879c-16.753-8.573-40.54-26.412-51.589-41.244l-9.035-12.129c-.821-1.102-3.908-1.753-5.004-.869l-27.322,22.034c-22.797,18.385-49.483,30.567-78.129,36.49-2.183.451-3.107,3.297-2.178,5.11,16.304,31.796,33.282,70.937,29.122,106.526l1.619,3.352c.351.726,2.655.692,3.59.565,38.603-5.244,74.852-7.489,112.805,2.725,1.354.364,3.992.344,4.96-.283.807-.523,1.733-2.602,1.945-3.583l5.297-24.559Z" fill="none"/>
    </clipPath>
    <clipPath id="clippath-1">
      <rect x="73.16" width="764.743" height="728.917" fill="none"/>
    </clipPath>
  </defs>
  <g id="Logo_Symbol" data-name="Logo Symbol">
    <g clip-path="url(#clippath)">
      <g clip-path="url(#clippath-1)">
        <image width="1594" height="1519" transform="translate(72.912 -.02) scale(.48)" xlink:href="Mentora Logo final-1.png"/>
      </g>
    </g>
    <ellipse cx="343.709" cy="179.968" rx="42.911" ry="42.951" fill="#7c2bc8"/>
    <ellipse cx="412.107" cy="597.854" rx="42.383" ry="42.423" fill="#bf4aea"/>
    <ellipse cx="212.708" cy="419.642" rx="42.315" ry="42.354" fill="#16f3ff"/>
    <ellipse cx="646.5" cy="468.502" rx="41.399" ry="41.437" fill="#fc57a4"/>
    <ellipse cx="612.418" cy="220.857" rx="40.98" ry="41.018" fill="#61a9f2"/>
  </g>
  <g>
    <path d="M195.547,763.42v129.788h-28.034v-119.924l7.441.519-55.376,119.405h-30.284l-55.376-119.059,7.268-.692v119.751H13.325v-129.788h45.167l52.261,115.598h-12.632l52.261-115.598h45.166Z" fill="#9c51dc"/>
    <path d="M263.21,895.804c-11.654,0-22.064-2.163-31.236-6.489s-16.383-10.41-21.631-18.257c-5.251-7.844-7.874-16.959-7.874-27.342,0-10.268,2.509-19.266,7.528-26.996,5.019-7.729,11.911-13.758,20.68-18.084,8.766-4.326,18.746-6.489,29.938-6.489,11.421,0,21.226,2.509,29.418,7.527,8.19,5.019,14.506,12.087,18.949,21.199,4.44,9.114,6.663,19.844,6.663,32.188h-89.987v-19.209h74.412l-11.249,6.922c-.462-5.768-1.876-10.67-4.24-14.709-2.366-4.037-5.567-7.152-9.604-9.345-4.04-2.19-8.769-3.288-14.19-3.288-5.884,0-10.989,1.185-15.315,3.548-4.326,2.365-7.674,5.653-10.037,9.863-2.366,4.213-3.547,9.145-3.547,14.796,0,6.809,1.498,12.633,4.5,17.479,2.999,4.845,7.381,8.539,13.152,11.075,5.767,2.539,12.746,3.807,20.939,3.807,7.382,0,14.823-1.065,22.324-3.201,7.498-2.134,14.247-5.162,20.247-9.085v19.382c-6.462,4.615-13.99,8.22-22.583,10.815-8.596,2.596-17.681,3.894-27.255,3.894Z" fill="#9c51dc"/>
    <path d="M317.375,794.743h28.899l6.23,37.552v60.914h-28.9v-65.24l-6.229-33.226ZM390.056,792.147c9.346,0,17.307,1.876,23.881,5.624,6.576,3.75,11.596,9.085,15.057,16.007s5.191,15.172,5.191,24.746v54.685h-28.9v-50.357c0-8.883-2.135-15.602-6.402-20.161-4.27-4.556-10.5-6.835-18.689-6.835-5.537,0-10.412,1.241-14.623,3.721-4.213,2.481-7.441,5.913-9.691,10.296-2.248,4.386-3.373,9.635-3.373,15.748l-9.518-5.019c1.15-10.383,3.92-19.149,8.305-26.304,4.385-7.152,9.922-12.633,16.613-16.44,6.689-3.807,14.074-5.71,22.15-5.71Z" fill="#9c51dc"/>
    <path d="M432.627,816.547v-12.807l20.593-6.749,12.287-28.207h16.612v25.958h43.609v21.805h-43.609v35.821c0,7.614,1.585,12.951,4.76,16.007,3.171,3.059,8.679,4.586,16.526,4.586,4.959,0,9.345-.46,13.151-1.385,3.808-.922,7.441-2.249,10.902-3.979v22.496c-3.348,1.385-7.787,2.683-13.325,3.894-5.537,1.212-11.248,1.817-17.132,1.817-10.27,0-18.603-1.644-25.006-4.932s-11.135-7.874-14.19-13.758c-3.058-5.884-4.586-12.746-4.586-20.593v-39.975h-20.593Z" fill="#9c51dc"/>
    <path d="M585.604,895.804c-12.229,0-22.959-2.163-32.188-6.489-9.23-4.326-16.439-10.383-21.631-18.171-5.191-7.787-7.787-16.812-7.787-27.082,0-10.383,2.596-19.468,7.787-27.256,5.191-7.787,12.4-13.844,21.631-18.17,9.229-4.326,19.958-6.489,32.188-6.489s22.957,2.163,32.188,6.489c9.229,4.326,16.41,10.383,21.545,18.17,5.133,7.788,7.701,16.873,7.701,27.256,0,10.27-2.568,19.295-7.701,27.082-5.135,7.788-12.316,13.845-21.545,18.171-9.23,4.326-19.96,6.489-32.188,6.489ZM585.604,873.827c6.689,0,12.431-1.211,17.219-3.634,4.786-2.423,8.479-5.854,11.075-10.297,2.596-4.439,3.894-9.718,3.894-15.834,0-6.229-1.298-11.564-3.894-16.007-2.596-4.44-6.289-7.874-11.075-10.297-4.788-2.423-10.529-3.634-17.219-3.634-6.575,0-12.286,1.211-17.132,3.634s-8.565,5.856-11.161,10.297c-2.597,4.442-3.895,9.777-3.895,16.007,0,6.116,1.298,11.395,3.895,15.834,2.596,4.442,6.315,7.874,11.161,10.297s10.557,3.634,17.132,3.634Z" fill="#9c51dc"/>
    <path d="M648.421,794.743h29.246l5.884,35.476v62.99h-28.899v-66.105l-6.23-32.36ZM731.486,793.705v24.919c-3.001-.692-6-1.211-8.998-1.558-3.002-.346-5.827-.519-8.479-.519-5.771,0-10.962,1.211-15.575,3.634-4.615,2.423-8.249,6.173-10.902,11.248-2.654,5.078-3.979,11.48-3.979,19.209l-6.057-7.269c.691-7.035,1.96-13.641,3.807-19.814,1.844-6.17,4.413-11.594,7.701-16.267,3.288-4.672,7.354-8.363,12.2-11.075,4.845-2.709,10.612-4.066,17.305-4.066,2.19,0,4.413.146,6.662.433,2.25.289,4.354.665,6.316,1.125Z" fill="#9c51dc"/>
    <path d="M829.26,844.062c-1.847,10.383-5.221,19.468-10.123,27.256-4.905,7.787-11.075,13.816-18.517,18.084-7.441,4.267-15.777,6.402-25.006,6.402-9.577,0-18.057-2.163-25.438-6.489-7.385-4.326-13.125-10.383-17.219-18.171-4.097-7.787-6.144-16.812-6.144-27.082,0-10.383,2.047-19.468,6.144-27.256,4.094-7.787,9.834-13.844,17.219-18.17,7.382-4.326,15.861-6.489,25.438-6.489,9.229,0,17.564,2.136,25.006,6.402,7.441,4.27,13.642,10.297,18.603,18.084,4.959,7.787,8.307,16.932,10.037,27.429ZM756.06,844.062c0,5.771,1.182,10.846,3.548,15.229,2.362,4.386,5.624,7.817,9.777,10.297,4.152,2.481,8.938,3.721,14.363,3.721s10.526-1.239,15.314-3.721c4.786-2.479,9.025-5.911,12.72-10.297,3.69-4.383,6.575-9.458,8.652-15.229-2.077-5.768-4.962-10.872-8.652-15.315-3.694-4.439-7.934-7.9-12.72-10.383-4.788-2.479-9.894-3.721-15.314-3.721s-10.211,1.241-14.363,3.721c-4.153,2.482-7.415,5.943-9.777,10.383-2.366,4.443-3.548,9.548-3.548,15.315ZM821.646,893.208l-4.153-35.994,4.673-13.152-4.673-12.979,4.153-36.341h29.938l-5.711,49.319,5.711,49.146h-29.938Z" fill="#9c51dc"/>
  </g>
</svg>